<svg width="30" height="30" viewBox="0 0 30 30" fill="none" xmlns="http://www.w3.org/2000/svg">
<circle cx="15" cy="15" r="14" stroke="#FF0000" stroke-width="2"/>
<path d="M12.782 20H10.668V14.218C10.668 14.0593 10.668 13.8633 10.668 13.63C10.6773 13.3967 10.6867 13.154 10.696 12.902C10.7053 12.65 10.7147 12.426 10.724 12.23C10.6773 12.286 10.5747 12.3887 10.416 12.538C10.2667 12.678 10.1267 12.804 9.996 12.916L8.848 13.84L7.826 12.566L11.046 10.004H12.782V20ZM22.5157 14.274C22.5157 14.8433 22.4737 15.4127 22.3897 15.982C22.3057 16.542 22.1564 17.074 21.9417 17.578C21.7364 18.0727 21.4424 18.516 21.0597 18.908C20.6864 19.2907 20.2057 19.594 19.6177 19.818C19.0391 20.0327 18.3344 20.14 17.5037 20.14C17.3077 20.14 17.0791 20.1307 16.8177 20.112C16.5564 20.1027 16.3371 20.0793 16.1597 20.042V18.348C16.3464 18.3853 16.5424 18.418 16.7477 18.446C16.9531 18.474 17.1584 18.488 17.3637 18.488C17.9891 18.488 18.5024 18.4133 18.9037 18.264C19.3144 18.1147 19.6364 17.9 19.8697 17.62C20.1031 17.34 20.2711 17.0087 20.3737 16.626C20.4857 16.2433 20.5511 15.8233 20.5697 15.366H20.4857C20.3551 15.5807 20.1964 15.7767 20.0097 15.954C19.8324 16.1313 19.6037 16.2713 19.3237 16.374C19.0531 16.4767 18.7031 16.528 18.2737 16.528C17.7044 16.528 17.2097 16.4067 16.7897 16.164C16.3697 15.912 16.0431 15.5527 15.8097 15.086C15.5764 14.61 15.4597 14.036 15.4597 13.364C15.4597 12.636 15.5951 12.0153 15.8657 11.502C16.1457 10.9793 16.5424 10.5827 17.0557 10.312C17.5691 10.032 18.1711 9.892 18.8617 9.892C19.3751 9.892 19.8511 9.98067 20.2897 10.158C20.7377 10.3353 21.1251 10.606 21.4517 10.97C21.7877 11.3247 22.0491 11.7773 22.2357 12.328C22.4224 12.8787 22.5157 13.5273 22.5157 14.274ZM18.9037 11.586C18.4931 11.586 18.1571 11.726 17.8957 12.006C17.6344 12.286 17.5037 12.7293 17.5037 13.336C17.5037 13.8213 17.6157 14.204 17.8397 14.484C18.0637 14.764 18.4044 14.904 18.8617 14.904C19.1791 14.904 19.4497 14.834 19.6737 14.694C19.9071 14.554 20.0891 14.3813 20.2197 14.176C20.3504 13.9613 20.4157 13.742 20.4157 13.518C20.4157 13.2847 20.3831 13.056 20.3177 12.832C20.2524 12.5987 20.1544 12.3887 20.0237 12.202C19.9024 12.0153 19.7484 11.866 19.5617 11.754C19.3751 11.642 19.1557 11.586 18.9037 11.586Z" fill="#FF0000"/>
</svg>
