<svg width="30" height="30" viewBox="0 0 30 30" fill="none" xmlns="http://www.w3.org/2000/svg">
<circle cx="15" cy="15" r="14.5" stroke="#FAFF00"/>
<path d="M9.378 20L8.65 17.62H5.01L4.282 20H2L5.528 9.962H8.118L11.66 20H9.378ZM7.418 13.518C7.37133 13.3593 7.31067 13.1587 7.236 12.916C7.16133 12.6733 7.08667 12.426 7.012 12.174C6.93733 11.922 6.87667 11.7027 6.83 11.516C6.78333 11.7027 6.718 11.936 6.634 12.216C6.55933 12.4867 6.48467 12.748 6.41 13C6.34467 13.2427 6.29333 13.4153 6.256 13.518L5.542 15.842H8.146L7.418 13.518ZM12.926 20V10.004H15.04V18.25H19.1V20H12.926ZM20.842 20V10.004H22.956V18.25H27.016V20H20.842Z" fill="#FAFF00"/>
</svg>
